<svg width="19" height="19" viewBox="0 0 19 19" fill="none" xmlns="http://www.w3.org/2000/svg">
<path d="M9.5 0C4.26175 0 0 4.26175 0 9.5C0 14.7382 4.26175 19 9.5 19C14.7382 19 19 14.7382 19 9.5C19 4.26175 14.7382 0 9.5 0ZM7.2063 5.33553C7.78498 4.72214 8.59933 4.38462 9.5 4.38462C10.4007 4.38462 11.2077 4.72442 11.7887 5.34101C12.3774 5.96582 12.6638 6.80529 12.5962 7.70779C12.461 9.5 11.0725 10.9615 9.5 10.9615C7.92748 10.9615 6.53627 9.5 6.40382 7.70733C6.33668 6.79752 6.6226 5.95531 7.2063 5.33553ZM9.5 17.5385C8.4269 17.5392 7.36457 17.3244 6.37603 16.9068C5.38749 16.4893 4.49286 15.8775 3.74519 15.1077C4.1734 14.4971 4.71901 13.9779 5.35014 13.5804C6.51435 12.8341 7.98776 12.4231 9.5 12.4231C11.0122 12.4231 12.4856 12.8341 13.6485 13.5804C14.2801 13.9777 14.8262 14.4969 15.2548 15.1077C14.5072 15.8776 13.6126 16.4894 12.624 16.907C11.6355 17.3245 10.5731 17.5393 9.5 17.5385Z" fill="#0400DA"/>
</svg>
