<svg width="23" height="23" viewBox="0 0 23 23" fill="none" xmlns="http://www.w3.org/2000/svg">
<path d="M19.5769 2.61539H3.42308C2.08485 2.61539 1 3.70024 1 5.03846V19.5769C1 20.9152 2.08485 22 3.42308 22H19.5769C20.9152 22 22 20.9152 22 19.5769V5.03846C22 3.70024 20.9152 2.61539 19.5769 2.61539Z" stroke="#0400DA" stroke-width="1.61538" stroke-linejoin="round"/>
<path d="M13.5192 11.5C14.1883 11.5 14.7308 10.9576 14.7308 10.2885C14.7308 9.61934 14.1883 9.07692 13.5192 9.07692C12.8501 9.07692 12.3077 9.61934 12.3077 10.2885C12.3077 10.9576 12.8501 11.5 13.5192 11.5Z" fill="#0400DA"/>
<path d="M17.5577 11.5C18.2268 11.5 18.7692 10.9576 18.7692 10.2885C18.7692 9.61934 18.2268 9.07692 17.5577 9.07692C16.8886 9.07692 16.3462 9.61934 16.3462 10.2885C16.3462 10.9576 16.8886 11.5 17.5577 11.5Z" fill="#0400DA"/>
<path d="M13.5192 15.5385C14.1883 15.5385 14.7308 14.996 14.7308 14.3269C14.7308 13.6578 14.1883 13.1154 13.5192 13.1154C12.8501 13.1154 12.3077 13.6578 12.3077 14.3269C12.3077 14.996 12.8501 15.5385 13.5192 15.5385Z" fill="#0400DA"/>
<path d="M17.5577 15.5385C18.2268 15.5385 18.7692 14.996 18.7692 14.3269C18.7692 13.6578 18.2268 13.1154 17.5577 13.1154C16.8886 13.1154 16.3462 13.6578 16.3462 14.3269C16.3462 14.996 16.8886 15.5385 17.5577 15.5385Z" fill="#0400DA"/>
<path d="M5.44231 15.5385C6.11143 15.5385 6.65385 14.996 6.65385 14.3269C6.65385 13.6578 6.11143 13.1154 5.44231 13.1154C4.7732 13.1154 4.23077 13.6578 4.23077 14.3269C4.23077 14.996 4.7732 15.5385 5.44231 15.5385Z" fill="#0400DA"/>
<path d="M9.48077 15.5385C10.1499 15.5385 10.6923 14.996 10.6923 14.3269C10.6923 13.6578 10.1499 13.1154 9.48077 13.1154C8.81166 13.1154 8.26923 13.6578 8.26923 14.3269C8.26923 14.996 8.81166 15.5385 9.48077 15.5385Z" fill="#0400DA"/>
<path d="M5.44231 19.5769C6.11143 19.5769 6.65385 19.0345 6.65385 18.3654C6.65385 17.6963 6.11143 17.1539 5.44231 17.1539C4.7732 17.1539 4.23077 17.6963 4.23077 18.3654C4.23077 19.0345 4.7732 19.5769 5.44231 19.5769Z" fill="#0400DA"/>
<path d="M9.48077 19.5769C10.1499 19.5769 10.6923 19.0345 10.6923 18.3654C10.6923 17.6963 10.1499 17.1539 9.48077 17.1539C8.81166 17.1539 8.26923 17.6963 8.26923 18.3654C8.26923 19.0345 8.81166 19.5769 9.48077 19.5769Z" fill="#0400DA"/>
<path d="M13.5192 19.5769C14.1883 19.5769 14.7308 19.0345 14.7308 18.3654C14.7308 17.6963 14.1883 17.1539 13.5192 17.1539C12.8501 17.1539 12.3077 17.6963 12.3077 18.3654C12.3077 19.0345 12.8501 19.5769 13.5192 19.5769Z" fill="#0400DA"/>
<path d="M5.03846 1V2.61538M17.9615 1V2.61538" stroke="#0400DA" stroke-width="1.61538" stroke-linecap="round" stroke-linejoin="round"/>
<path d="M22 6.65385H1" stroke="#0400DA" stroke-width="1.61538" stroke-linejoin="round"/>
</svg>
