<svg width="44" height="44" viewBox="0 0 44 44" fill="none" xmlns="http://www.w3.org/2000/svg">
<path d="M22 0C9.85089 0 0 10.1062 0 22.5598C0 32.5286 6.30536 40.975 15.0464 43.9607C15.169 43.9873 15.2942 44.0005 15.4196 44C16.2348 44 16.5491 43.4009 16.5491 42.8803C16.5491 42.3402 16.5295 40.9259 16.5196 39.0402C15.7919 39.2108 15.0474 39.2997 14.3 39.3053C10.067 39.3053 9.10446 36.0152 9.10446 36.0152C8.10268 33.4125 6.65893 32.7152 6.65893 32.7152C4.74375 31.3696 6.64911 31.3303 6.79643 31.3303H6.80625C9.01607 31.5268 10.175 33.6678 10.175 33.6678C11.275 35.5928 12.7482 36.133 14.0643 36.133C14.9345 36.1156 15.7913 35.9148 16.5786 35.5437C16.775 34.0902 17.3446 33.0982 17.9732 32.5286C13.092 31.9589 7.95536 30.0241 7.95536 21.3812C7.95536 18.9161 8.80982 16.9027 10.2143 15.3312C9.98839 14.7616 9.23214 12.4634 10.4304 9.35982C10.5911 9.32136 10.7563 9.30484 10.9214 9.31071C11.717 9.31071 13.5143 9.61517 16.4804 11.6777C20.0844 10.6693 23.896 10.6693 27.5 11.6777C30.4661 9.61517 32.2634 9.31071 33.0589 9.31071C33.2241 9.30484 33.3893 9.32136 33.55 9.35982C34.7482 12.4634 33.992 14.7616 33.7661 15.3312C35.1705 16.9125 36.025 18.9259 36.025 21.3812C36.025 30.0437 30.8786 31.9491 25.9777 32.5089C26.7634 33.2062 27.4705 34.5812 27.4705 36.683C27.4705 39.6982 27.4411 42.1339 27.4411 42.8705C27.4411 43.4009 27.7455 44 28.5607 44C28.6927 44.0006 28.8243 43.9874 28.9536 43.9607C37.7045 40.975 44 32.5187 44 22.5598C44 10.1062 34.1491 0 22 0Z" fill="#B6C2D3"/>
</svg>
