<svg width="22" height="22" viewBox="0 0 22 22" fill="none" xmlns="http://www.w3.org/2000/svg">
<path d="M11 0C4.9346 0 0 4.9346 0 11C0 17.0654 4.9346 22 11 22C17.0654 22 22 17.0654 22 11C22 4.9346 17.0654 0 11 0ZM11 4.51C11.2828 4.51 11.5593 4.59387 11.7945 4.751C12.0296 4.90813 12.2129 5.13146 12.3211 5.39276C12.4294 5.65406 12.4577 5.94159 12.4025 6.21898C12.3473 6.49637 12.2112 6.75117 12.0112 6.95116C11.8112 7.15115 11.5564 7.28735 11.279 7.34252C11.0016 7.3977 10.7141 7.36938 10.4528 7.26115C10.1915 7.15291 9.96813 6.96963 9.811 6.73447C9.65387 6.4993 9.57 6.22283 9.57 5.94C9.57 5.56074 9.72066 5.19701 9.98884 4.92884C10.257 4.66066 10.6207 4.51 11 4.51ZM14.52 16.94H7.92V15.18H10.34V10.34H8.58V8.58H12.1V15.18H14.52V16.94Z" fill="#B6C2D3"/>
</svg>
