<svg width="14" height="13" viewBox="0 0 14 13" fill="none" xmlns="http://www.w3.org/2000/svg">
<path d="M11.0246 12.9986C10.9263 12.999 10.8305 12.9685 10.7507 12.9116L6.99927 10.2063L3.24788 12.9116C3.16773 12.9694 3.07118 13.0004 2.97217 13C2.87316 12.9996 2.77684 12.968 2.69711 12.9096C2.61739 12.8512 2.55841 12.7691 2.52869 12.6751C2.49897 12.5812 2.50005 12.4803 2.53179 12.387L3.99489 8.07642L0.202955 5.48985C0.120819 5.43388 0.0588275 5.35326 0.026038 5.25975C-0.00675142 5.16625 -0.00862046 5.06476 0.020704 4.97013C0.0500285 4.87549 0.10901 4.79266 0.18903 4.73374C0.26905 4.67483 0.365916 4.6429 0.465474 4.64264H5.14356L6.55532 0.321045C6.58574 0.227743 6.64508 0.146421 6.72483 0.0887437C6.80459 0.0310669 6.90066 0 6.99927 0C7.09788 0 7.19395 0.0310669 7.27371 0.0887437C7.35347 0.146421 7.41281 0.227743 7.44322 0.321045L8.85499 4.64409H13.5331C13.6328 4.64405 13.7298 4.67575 13.8101 4.73455C13.8903 4.79336 13.9496 4.87618 13.9791 4.97089C14.0086 5.0656 14.0068 5.16721 13.9741 5.26086C13.9413 5.35451 13.8793 5.43526 13.797 5.4913L10.0037 8.07642L11.4659 12.3858C11.4896 12.4556 11.4962 12.53 11.4853 12.6028C11.4744 12.6757 11.4462 12.7449 11.4031 12.8047C11.36 12.8646 11.3032 12.9134 11.2374 12.9471C11.1715 12.9808 11.0986 12.9985 11.0246 12.9986Z" fill="#0400DA"/>
</svg>
