<svg width="13" height="13" viewBox="0 0 13 13" fill="none" xmlns="http://www.w3.org/2000/svg">
<path d="M12.6976 2.58969C12.6641 2.52469 12.6158 2.4685 12.5565 2.4257C12.4973 2.38289 12.4287 2.35469 12.3565 2.34338C12.2843 2.33207 12.2104 2.33797 12.1408 2.36061C12.0713 2.38325 12.0081 2.42198 11.9564 2.47365L10.1734 4.25716C10.0859 4.34339 9.96796 4.39172 9.84508 4.39172C9.72219 4.39172 9.60424 4.34339 9.51672 4.25716L8.74595 3.48551C8.70283 3.4424 8.66862 3.39123 8.64528 3.33491C8.62193 3.27859 8.60992 3.21823 8.60992 3.15726C8.60992 3.0963 8.62193 3.03594 8.64528 2.97962C8.66862 2.9233 8.70283 2.87212 8.74595 2.82902L10.5214 1.05393C10.5746 1.00073 10.6141 0.935396 10.6365 0.863553C10.6588 0.79171 10.6634 0.715512 10.6497 0.641522C10.6361 0.567532 10.6046 0.497968 10.5581 0.438821C10.5116 0.379675 10.4514 0.33272 10.3827 0.302C9.04167 -0.297338 7.36781 0.0153852 6.31236 1.06263C5.41565 1.95264 5.14837 3.34336 5.57961 4.87825C5.60286 4.96011 5.60299 5.04679 5.57999 5.12872C5.557 5.21064 5.51176 5.2846 5.44931 5.34241L0.618097 9.75331C0.429887 9.92223 0.278076 10.1277 0.171924 10.3572C0.0657725 10.5867 0.00750591 10.8355 0.000678539 11.0882C-0.00614883 11.341 0.0386062 11.5925 0.132214 11.8274C0.225821 12.0623 0.366318 12.2756 0.545135 12.4545C0.723951 12.6333 0.937339 12.7739 1.17228 12.8675C1.40722 12.9612 1.65879 13.0061 1.91164 12.9993C2.16449 12.9926 2.41333 12.9345 2.64296 12.8285C2.8726 12.7225 3.07822 12.5708 3.24729 12.3827L7.70705 7.54249C7.76404 7.48086 7.83678 7.43595 7.91742 7.41258C7.99807 7.38922 8.08356 7.3883 8.16469 7.40992C8.60183 7.52965 9.05274 7.59177 9.50598 7.59471C10.4752 7.59471 11.3258 7.28111 11.9393 6.67685C13.0754 5.55795 13.2487 3.66014 12.6976 2.58969ZM1.95852 12.0651C1.7674 12.0859 1.57451 12.047 1.40648 11.9536C1.23844 11.8602 1.10356 11.7169 1.02042 11.5436C0.93729 11.3704 0.910014 11.1755 0.942358 10.9861C0.974703 10.7966 1.06507 10.6219 1.201 10.486C1.33692 10.35 1.5117 10.2596 1.70121 10.2272C1.89071 10.1948 2.08561 10.222 2.259 10.3051C2.43238 10.3881 2.57571 10.5229 2.6692 10.6908C2.76269 10.8588 2.80174 11.0516 2.78094 11.2427C2.75806 11.4529 2.66407 11.649 2.51451 11.7985C2.36496 11.9481 2.16881 12.0421 1.95852 12.0651Z" fill="#0400DA"/>
</svg>
