<svg width="20" height="20" viewBox="0 0 20 20" fill="none" xmlns="http://www.w3.org/2000/svg">
<path d="M11.8657 0.15L12.6119 0.316667L13.2172 0.533333L13.7065 0.783333L14.0796 1.05L14.3615 1.33333L14.5688 1.61667L14.7015 1.89167L14.7844 2.14167L14.8176 2.35833L14.8342 2.525L14.8259 2.63333V7.08333L14.7844 7.60833L14.6766 8.06667L14.5025 8.45L14.2869 8.76667L14.0381 9.025L13.7645 9.23333L13.4743 9.39167L13.1841 9.50833L12.9104 9.59167L12.6617 9.65L12.4461 9.68333L12.272 9.7H7.32172L6.74959 9.74167L6.26036 9.85833L5.84577 10.0417L5.5058 10.2667L5.23217 10.5333L5.00829 10.825L4.84245 11.125L4.71808 11.4333L4.63516 11.725L4.57711 11.9917L4.54395 12.2167L4.52736 12.3917V14.9417H2.67828L2.50415 14.9167L2.27197 14.8583L2.00663 14.7583L1.71642 14.6083L1.41791 14.3917L1.1194 14.0917L0.829187 13.7083L0.563847 13.2167L0.331675 12.6083L0.157546 11.875L0.0414594 11L0 9.975L0.0497512 8.95833L0.182421 8.09167L0.381426 7.36667L0.646766 6.775L0.945274 6.3L1.27695 5.93333L1.62521 5.65833L1.97347 5.45833L2.30514 5.325L2.60365 5.24167L2.86899 5.2L3.06799 5.19167H3.20066L3.25041 5.2H10.0166V4.50833H5.17413L5.16584 2.21667L5.14925 1.90833L5.19071 1.625L5.28192 1.36667L5.42289 1.13333L5.63018 0.916667L5.88723 0.725L6.20232 0.558333L6.56716 0.408333L6.99005 0.283333L7.47098 0.183333L8.00166 0.1L8.59038 0.05L9.22886 0.0166667L9.92537 0L10.9784 0.0416667L11.8657 0.15ZM6.64179 1.8L6.45108 2.075L6.38474 2.41667L6.45108 2.75833L6.64179 3.04167L6.91542 3.225L7.25539 3.3L7.59536 3.225L7.86899 3.04167L8.0597 2.75833L8.12604 2.41667L8.0597 2.075L7.86899 1.8L7.59536 1.61667L7.25539 1.54167L6.91542 1.61667L6.64179 1.8ZM17.4959 5.09167L17.728 5.14167L17.9934 5.24167L18.2836 5.39167L18.5821 5.61667L18.8806 5.90833L19.1708 6.3L19.4362 6.79167L19.6683 7.4L19.8425 8.13333L19.9585 9L20 10.025L19.9502 11.05L19.8176 11.9167L19.6186 12.6333L19.3532 13.225L19.0547 13.7L18.7231 14.075L18.3748 14.35L18.0265 14.55L17.6949 14.6833L17.3964 14.7583L17.131 14.8L16.932 14.8167L16.7993 14.8083H9.98342V15.4917H14.8259L14.8342 17.7917L14.8507 18.0917L14.8093 18.375L14.7181 18.6333L14.5771 18.875L14.3698 19.0833L14.1128 19.2833L13.7977 19.45L13.4328 19.5917L13.0099 19.7167L12.529 19.825L11.9983 19.9L11.4096 19.9583L10.7711 19.9917L10.0746 20L9.02156 19.9667L8.13433 19.85L7.38806 19.6833L6.78275 19.475L6.29353 19.225L5.9204 18.95L5.63847 18.6667L5.43118 18.3833L5.29851 18.1083L5.21559 17.8583L5.18242 17.65L5.16584 17.4833L5.17413 17.375V12.925L5.21559 12.3917L5.32338 11.9417L5.49751 11.5583L5.7131 11.2417L5.96186 10.975L6.23549 10.775L6.5257 10.6083L6.81592 10.4917L7.08955 10.4083L7.33831 10.3583L7.5539 10.325L7.72803 10.3083L7.83582 10.3H12.6783L13.2504 10.2583L13.7396 10.1417L14.1542 9.96667L14.4942 9.73333L14.7678 9.46667L14.9917 9.175L15.1575 8.875L15.2819 8.575L15.3648 8.28333L15.4229 8.01667L15.4561 7.78333L15.4726 7.60833V5.05833H17.2056L17.3217 5.06667L17.4959 5.09167ZM12.131 16.9667L11.9403 17.2417L11.874 17.5833L11.9403 17.925L12.131 18.2L12.4046 18.3917L12.7446 18.4583L13.0846 18.3917L13.3582 18.2L13.5489 17.925L13.6153 17.5833L13.5489 17.2417L13.3582 16.9667L13.0846 16.775L12.7446 16.7083L12.4046 16.775L12.131 16.9667Z" fill="#0400DA"/>
</svg>
