<svg width="20" height="20" viewBox="0 0 20 20" fill="none" xmlns="http://www.w3.org/2000/svg">
<path d="M5 0C2.23858 0 0 2.23858 0 5V15C0 17.7614 2.23858 20 5 20H15C17.7614 20 20 17.7614 20 15V5C20 2.23858 17.7614 0 15 0H5ZM10.7143 15.5357C10.7143 17.4826 9.56429 18.4317 7.89955 18.4317C6.79446 18.4317 6.03012 18.0111 5.52678 17.4151C5.22095 17.0529 5.38837 16.527 5.79386 16.2815V16.2815C6.24082 16.011 6.752 16.2359 7.16334 16.558C7.31944 16.6803 7.512 16.7536 7.77411 16.7536C8.30982 16.7536 8.75 16.5121 8.75 15.5723V10.2679C8.75 9.72543 9.18972 9.28571 9.73214 9.28571V9.28571C10.2746 9.28571 10.7143 9.72543 10.7143 10.2679V15.5357ZM15.1496 18.3871C13.8186 18.3871 12.8467 17.929 12.2162 17.229C11.8891 16.8659 12.0571 16.3206 12.4801 16.0758V16.0758C12.9132 15.8251 13.4453 15.9968 13.8358 16.3097C14.1596 16.5693 14.5659 16.7214 15.1116 16.7214C15.8902 16.7214 16.3424 16.3768 16.3424 15.8397C16.3424 15.1955 15.8768 14.9674 15.0174 14.5897L14.5478 14.3879C13.1915 13.8112 12.2924 13.0862 12.2924 11.5554C12.2924 10.146 13.3661 9.11652 15.0442 9.11652C15.9544 9.11652 16.6694 9.33199 17.2317 9.91522C17.5512 10.2466 17.4129 10.7703 17.0257 11.0192V11.0192C16.6053 11.2895 16.0789 11.0797 15.6371 10.8462C15.4647 10.7551 15.2705 10.7143 15.042 10.7143C14.4915 10.7143 14.1424 11.0634 14.1424 11.5179C14.1424 12.0817 14.4915 12.3098 15.2969 12.6589L15.7665 12.8603C17.3643 13.5451 18.2638 14.2442 18.2638 15.8138C18.2643 17.5058 16.9353 18.3871 15.1496 18.3871Z" fill="#0400DA"/>
</svg>
