<svg width="22" height="24" viewBox="0 0 22 24" fill="none" xmlns="http://www.w3.org/2000/svg">
<path d="M21.7275 5.99887C21.5673 5.71614 21.3321 5.47998 21.0462 5.31474L11.9538 0.225774C11.6592 0.0774392 11.332 0 11 0C10.668 0 10.3408 0.0774392 10.0462 0.225774L0.953829 5.31474C0.675246 5.48811 0.443378 5.72338 0.277485 6.00102C0.111592 6.27865 0.0164631 6.59063 0 6.91104V17.089C0.0089814 17.4106 0.102801 17.7246 0.272523 18.0011C0.432749 18.2839 0.667943 18.52 0.953829 18.6853L10.0462 23.7742C10.3408 23.9226 10.668 24 11 24C11.332 24 11.6592 23.9226 11.9538 23.7742L21.0462 18.6853C21.3321 18.52 21.5673 18.2839 21.7275 18.0011C21.8972 17.7246 21.991 17.4106 22 17.089V6.91104C21.991 6.58942 21.8972 6.2754 21.7275 5.99887ZM11 19.1053C9.71657 19.0998 8.45712 18.768 7.34751 18.143C6.2379 17.5181 5.317 16.622 4.67682 15.5442C4.03665 14.4663 3.69964 13.2446 3.69945 12.0011C3.69927 10.7575 4.03593 9.53573 4.67578 8.45774C5.31564 7.37976 6.23628 6.48336 7.3457 5.85813C8.45513 5.23289 9.71448 4.90072 10.9979 4.89481C12.2813 4.88889 13.5439 5.20944 14.6594 5.82443C15.7749 6.43941 16.7043 7.32728 17.3547 8.39932L15.955 9.25148L15.509 9.49153L14.2703 10.2237C13.8748 9.51306 13.2443 8.95185 12.48 8.63018C11.7157 8.30851 10.8621 8.24504 10.0561 8.44996C9.25014 8.65488 8.53864 9.1163 8.03587 9.76012C7.53309 10.4039 7.26822 11.1928 7.28378 12C7.28027 12.6246 7.45151 13.2385 7.77928 13.7763C8.11053 14.3054 8.57693 14.7429 9.13348 15.0465C9.69003 15.3501 10.3179 15.5096 10.9566 15.5096C11.5953 15.5096 12.2233 15.3501 12.7798 15.0465C13.3364 14.7429 13.8028 14.3054 14.134 13.7763L17.3547 15.6007C16.7026 16.6708 15.7732 17.5572 14.6585 18.172C13.5438 18.7867 12.2826 19.1085 11 19.1053ZM18.3333 12.3961H17.5158V13.2002H16.7106V12.4081H15.955V11.6159H16.7725V10.7998H17.5777V11.5919H18.3953L18.3333 12.3961ZM21.393 12.3961H20.5755V13.2002H19.7579V12.4081H18.9527V11.6159H19.7579V10.7998H20.5755V11.5919H21.393V12.3961Z" fill="#0400DA"/>
</svg>
