<svg width="19" height="26" viewBox="0 0 19 26" fill="none" xmlns="http://www.w3.org/2000/svg">
<path d="M13.8308 15.8892C14.324 15.549 15.0086 15.2545 15.0086 15.2545C15.0086 15.2545 13.0607 15.61 11.1229 15.7724C8.75216 15.9705 6.2053 16.0111 4.92683 15.8385C1.90181 15.4322 6.58783 14.31 6.58783 14.31C6.58783 14.31 4.7708 14.1881 2.53097 15.2748C-0.111521 16.5646 9.07429 17.1537 13.8308 15.8892ZM9.53232 14.2592C8.57599 12.0909 5.34963 10.1866 9.53232 6.85538C14.7499 2.70153 12.0742 0 12.0742 0C13.1563 4.29096 8.26896 5.59094 6.50226 8.25692C5.2993 10.0799 7.09116 12.035 9.53232 14.2592ZM15.3005 5.31165C15.3055 5.31165 6.48213 7.53584 10.695 12.4311C11.9383 13.8733 10.3679 15.1732 10.3679 15.1732C10.3679 15.1732 13.5237 13.5279 12.0742 11.4713C10.7202 9.55183 9.68332 8.59715 15.3005 5.31165ZM14.9935 19.0478C14.966 19.0962 14.9321 19.1406 14.8928 19.1798C21.3506 17.4685 18.9748 13.142 15.8894 14.2389C15.7228 14.3007 15.5788 14.4123 15.4767 14.5588C15.6568 14.493 15.842 14.4421 16.0303 14.4065C17.5907 14.0764 19.8305 16.5138 14.9935 19.0478ZM17.3672 22.2114C17.3672 22.2114 18.097 22.8157 16.5669 23.288C13.6526 24.1766 4.44665 24.4458 1.88973 23.3235C0.96863 22.9224 2.69506 22.3587 3.23866 22.2419C3.80239 22.12 4.12956 22.1403 4.12956 22.1403C3.10779 21.4142 -2.4792 23.5673 1.29076 24.1817C11.5708 25.8676 20.0349 23.4251 17.3672 22.2114ZM6.1147 20.1091C2.15347 21.2263 8.52566 23.5317 13.569 21.3532C13.0772 21.1604 12.6023 20.926 12.1497 20.6525C9.89976 21.0841 8.85786 21.1146 6.81433 20.881C5.12817 20.688 6.1147 20.1091 6.1147 20.1091ZM15.1646 25.045C11.2034 25.7965 6.31603 25.7102 3.42187 25.2278C3.42187 25.2227 4.0158 25.7204 7.066 25.9184C11.7067 26.218 18.8339 25.7508 19 23.5368C19 23.5368 18.6779 24.3747 15.1646 25.045ZM12.9701 17.9255C9.99036 18.5044 8.26393 18.4892 6.0845 18.2607C4.39833 18.083 5.50063 17.2603 5.50063 17.2603C1.13171 18.7228 7.92669 20.3782 14.0321 18.5755C13.6375 18.435 13.276 18.2137 12.9701 17.9255Z" fill="#0400DA"/>
</svg>
