<svg width="45" height="50" viewBox="0 0 45 50" fill="none" xmlns="http://www.w3.org/2000/svg">
<path d="M44.4426 12.4976C44.1148 11.9086 43.6338 11.4166 43.049 11.0724L24.451 0.470362C23.8484 0.161332 23.1792 0 22.5 0C21.8208 0 21.1516 0.161332 20.549 0.470362L1.95101 11.0724C1.38118 11.4336 0.906909 11.9237 0.567583 12.5021C0.228257 13.0805 0.0336745 13.7305 0 14.398V35.602C0.018371 36.272 0.210276 36.9263 0.557433 37.5024C0.885167 38.0914 1.36625 38.5834 1.95101 38.9276L20.549 49.5296C21.1516 49.8387 21.8208 50 22.5 50C23.1792 50 23.8484 49.8387 24.451 49.5296L43.049 38.9276C43.6338 38.5834 44.1148 38.0914 44.4426 37.5024C44.7897 36.9263 44.9816 36.272 45 35.602V14.398C44.9816 13.728 44.7897 13.0737 44.4426 12.4976ZM22.5 39.8028C19.8748 39.7912 17.2986 39.0999 15.029 37.798C12.7593 36.496 10.8757 34.6291 9.56623 32.3836C8.25679 30.1382 7.56744 27.593 7.56706 25.0023C7.56669 22.4115 8.25531 19.8661 9.5641 17.6203C10.8729 15.3745 12.756 13.507 15.0253 12.2044C17.2946 10.9019 19.8705 10.2098 22.4957 10.1975C25.1209 10.1852 27.7034 10.853 29.9852 12.1342C32.2669 13.4154 34.1679 15.2652 35.4983 17.4986L32.6351 19.2739L31.723 19.774L29.1892 21.2993C28.3802 19.8189 27.0905 18.6497 25.5273 17.9795C23.964 17.3094 22.2179 17.1772 20.5693 17.6041C18.9207 18.031 17.4654 18.9923 16.437 20.3336C15.4086 21.6749 14.8668 23.3183 14.8986 25C14.8915 26.3013 15.2417 27.5802 15.9122 28.7007C16.5897 29.803 17.5437 30.7144 18.6821 31.3469C19.8205 31.9794 21.1049 32.3117 22.4113 32.3117C23.7177 32.3117 25.0021 31.9794 26.1405 31.3469C27.2789 30.7144 28.2329 29.803 28.9105 28.7007L35.4983 32.5014C34.1645 34.7309 32.2633 36.5775 29.9832 37.8583C27.7032 39.139 25.1235 39.8093 22.5 39.8028ZM37.5 25.8252H35.8277V27.5005H34.1807V25.8502H32.6351V24.1998H34.3074V22.4995H35.9544V24.1498H37.6267L37.5 25.8252ZM43.7584 25.8252H42.0862V27.5005H40.4139V25.8502H38.7669V24.1998H40.4139V22.4995H42.0862V24.1498H43.7584V25.8252Z" fill="black"/>
</svg>
