<svg width="22" height="30" viewBox="0 0 22 30" fill="none" xmlns="http://www.w3.org/2000/svg">
<path d="M16.0146 18.3337C16.5857 17.9412 17.3784 17.6013 17.3784 17.6013C17.3784 17.6013 15.1229 18.0115 12.8791 18.199C10.1341 18.4275 7.18508 18.4744 5.70475 18.2751C2.20209 17.8064 7.62801 16.5115 7.62801 16.5115C7.62801 16.5115 5.52409 16.3709 2.9306 17.6248C-0.129129 19.113 10.5071 19.7927 16.0146 18.3337ZM11.0374 16.4529C9.9301 13.951 6.19431 11.7538 11.0374 7.91005C17.0788 3.11715 13.9806 0 13.9806 0C15.2336 4.95111 9.57458 6.45109 7.52894 9.52722C6.13603 11.6307 8.21082 13.8865 11.0374 16.4529ZM17.7164 6.12883C17.7222 6.12883 7.50562 8.6952 12.3837 14.3436C13.8232 16.0076 12.0049 17.5076 12.0049 17.5076C12.0049 17.5076 15.6591 15.6092 13.9806 13.2362C12.4128 11.0213 11.2123 9.91979 17.7164 6.12883ZM17.3609 21.9782C17.329 22.0341 17.2898 22.0853 17.2443 22.1306C24.7217 20.156 21.9709 15.1639 18.3983 16.4295C18.2053 16.5008 18.0386 16.6295 17.9204 16.7986C18.129 16.7227 18.3434 16.6639 18.5614 16.6228C20.3681 16.242 22.9616 19.0544 17.3609 21.9782ZM20.1094 25.6286C20.1094 25.6286 20.9544 26.3258 19.1827 26.8707C15.8083 27.8961 5.14876 28.2067 2.18811 26.9118C1.12157 26.4489 3.12059 25.7985 3.75002 25.6637C4.40277 25.5231 4.78159 25.5465 4.78159 25.5465C3.5985 24.7087 -2.87065 27.193 1.49457 27.902C13.3978 29.8473 23.1982 27.0289 20.1094 25.6286ZM7.08018 23.2028C2.4935 24.4919 9.87182 27.152 15.7115 24.6383C15.142 24.4159 14.5922 24.1454 14.068 23.8298C11.4629 24.3278 10.2565 24.363 7.89028 24.0934C5.93788 23.8708 7.08018 23.2028 7.08018 23.2028ZM17.559 28.8981C12.9723 29.7652 7.3133 29.6656 3.96217 29.109C3.96217 29.1031 4.64988 29.6773 8.18168 29.9059C13.5551 30.2516 21.8077 29.7125 22 27.1578C22 27.1578 21.627 28.1246 17.559 28.8981ZM15.018 20.6833C11.5678 21.3513 9.56876 21.3337 7.04521 21.07C5.09281 20.865 6.36915 19.9158 6.36915 19.9158C1.3104 21.6032 9.17828 23.5134 16.2477 21.4333C15.7908 21.2711 15.3722 21.0158 15.018 20.6833Z" fill="black"/>
</svg>
