<svg width="27" height="27" viewBox="0 0 27 27" fill="none" xmlns="http://www.w3.org/2000/svg">
<path d="M0 0V27H27V0H0ZM14.4643 20.9732C14.4643 23.6015 12.9118 24.8828 10.6644 24.8828C8.63458 24.8828 7.45634 23.8317 6.85848 22.5631L8.92446 21.3125C9.32284 22.0195 9.62538 22.6173 10.495 22.6173C11.2183 22.6173 11.8125 22.2913 11.8125 21.0226V12.5357H14.4643V20.9732ZM20.4519 24.8225C18.096 24.8225 16.5737 23.7594 15.8306 22.2913L17.8996 21.0938C18.442 21.9821 19.1501 22.5739 20.4007 22.5739C21.4517 22.5739 22.0623 22.1087 22.0623 21.3836C22.0623 20.514 21.4337 20.206 20.2735 19.6961L19.6395 19.4237C17.8085 18.6451 16.5948 17.6663 16.5948 15.5997C16.5948 13.6971 18.0442 12.3073 20.3097 12.3073C21.923 12.3073 23.082 12.8087 23.9167 14.2769L21.9375 15.5491C21.5024 14.7698 21.0335 14.4643 20.3067 14.4643C19.5635 14.4643 19.0923 14.9356 19.0923 15.5491C19.0923 16.3103 19.5635 16.6183 20.6508 17.0896L21.2848 17.3614C23.4418 18.2859 24.6562 19.2297 24.6562 21.3487C24.6568 23.6328 22.8626 24.8225 20.4519 24.8225Z" fill="black"/>
</svg>
