<svg width="36" height="36" viewBox="0 0 36 36" fill="none" xmlns="http://www.w3.org/2000/svg">
<path d="M21.3582 0.27L22.7015 0.57L23.791 0.96L24.6716 1.41L25.3433 1.89L25.8507 2.4L26.2239 2.91L26.4627 3.405L26.6119 3.855L26.6716 4.245L26.7015 4.545L26.6866 4.74V12.75L26.6119 13.695L26.4179 14.52L26.1045 15.21L25.7164 15.78L25.2687 16.245L24.7761 16.62L24.2537 16.905L23.7313 17.115L23.2388 17.265L22.791 17.37L22.403 17.43L22.0896 17.46H13.1791L12.1493 17.535L11.2687 17.745L10.5224 18.075L9.91045 18.48L9.41791 18.96L9.01492 19.485L8.71642 20.025L8.49254 20.58L8.34328 21.105L8.23881 21.585L8.1791 21.99L8.14925 22.305V26.895H4.8209L4.50746 26.85L4.08955 26.745L3.61194 26.565L3.08955 26.295L2.55224 25.905L2.01493 25.365L1.49254 24.675L1.01493 23.79L0.597015 22.695L0.283582 21.375L0.0746269 19.8L0 17.955L0.0895522 16.125L0.328358 14.565L0.686567 13.26L1.16418 12.195L1.70149 11.34L2.29851 10.68L2.92537 10.185L3.55224 9.825L4.14925 9.585L4.68657 9.435L5.16418 9.36L5.52239 9.345H5.76119L5.85075 9.36H18.0298V8.115H9.31343L9.29851 3.99L9.26866 3.435L9.34328 2.925L9.50746 2.46L9.76119 2.04L10.1343 1.65L10.597 1.305L11.1642 1.005L11.8209 0.735L12.5821 0.51L13.4478 0.33L14.403 0.18L15.4627 0.09L16.6119 0.03L17.8657 0L19.7612 0.075L21.3582 0.27ZM11.9552 3.24L11.6119 3.735L11.4925 4.35L11.6119 4.965L11.9552 5.475L12.4478 5.805L13.0597 5.94L13.6716 5.805L14.1642 5.475L14.5075 4.965L14.6269 4.35L14.5075 3.735L14.1642 3.24L13.6716 2.91L13.0597 2.775L12.4478 2.91L11.9552 3.24ZM31.4925 9.165L31.9104 9.255L32.3881 9.435L32.9104 9.705L33.4478 10.11L33.9851 10.635L34.5075 11.34L34.9851 12.225L35.403 13.32L35.7164 14.64L35.9254 16.2L36 18.045L35.9104 19.89L35.6716 21.45L35.3134 22.74L34.8358 23.805L34.2985 24.66L33.7015 25.335L33.0746 25.83L32.4478 26.19L31.8507 26.43L31.3134 26.565L30.8358 26.64L30.4776 26.67L30.2388 26.655H17.9701V27.885H26.6866L26.7015 32.025L26.7313 32.565L26.6567 33.075L26.4925 33.54L26.2388 33.975L25.8657 34.35L25.403 34.71L24.8358 35.01L24.1791 35.265L23.4179 35.49L22.5522 35.685L21.597 35.82L20.5373 35.925L19.3881 35.985L18.1343 36L16.2388 35.94L14.6418 35.73L13.2985 35.43L12.209 35.055L11.3284 34.605L10.6567 34.11L10.1493 33.6L9.77612 33.09L9.53731 32.595L9.38806 32.145L9.32836 31.77L9.29851 31.47L9.31343 31.275V23.265L9.38806 22.305L9.58209 21.495L9.89552 20.805L10.2836 20.235L10.7313 19.755L11.2239 19.395L11.7463 19.095L12.2687 18.885L12.7612 18.735L13.209 18.645L13.597 18.585L13.9104 18.555L14.1045 18.54H22.8209L23.8507 18.465L24.7313 18.255L25.4776 17.94L26.0896 17.52L26.5821 17.04L26.9851 16.515L27.2836 15.975L27.5075 15.435L27.6567 14.91L27.7612 14.43L27.8209 14.01L27.8507 13.695V9.105H30.9701L31.1791 9.12L31.4925 9.165ZM21.8358 30.54L21.4925 31.035L21.3731 31.65L21.4925 32.265L21.8358 32.76L22.3284 33.105L22.9403 33.225L23.5522 33.105L24.0448 32.76L24.3881 32.265L24.5075 31.65L24.3881 31.035L24.0448 30.54L23.5522 30.195L22.9403 30.075L22.3284 30.195L21.8358 30.54Z" fill="black"/>
</svg>
